# xmcd
#
# Track frame offsets:
#	150
#	26623
#	58253
#	78033
#	107786
#	129090
#	158128
#	179899
#	198414
#	216724
#	231476
#	256239
#
# Disc length: 4203 seconds
#
# Revision: 0
# Processed by: cddbd v1.5.2PL0 Copyright (c) Steve Scherf et al.
# Submitted via: EasyCDDAExtractor 10.0.2.1
#
DISCID=ad10690c
DTITLE=Various Artist - th best collection of chinese erhu
DYEAR=2008
DGENRE=
TTITLE0=guotong wang - moon's reflection on erquan spring
TTITLE1=huifen min - sorrow of river water
TTITLE2=xun zeng - towards a bright future
TTITLE3=huifen min - growing in sickness
TTITLE4=rui zhang - one string playing
TTITLE5=hanyang zhao - an autumn moon shedding light on the palace of han dyna
TTITLE5=sty
TTITLE6=fei song - the herdsman
TTITLE7=guosheng song - henan folk music
TTITLE8=yaoxing chen - song of prais
TTITLE9=guotong wang - lament
TTITLE10=jiebing chen - mature grapes
TTITLE11=hongmei yu - lan hua hua
EXTD=
EXTT0=
EXTT1=
EXTT2=
EXTT3=
EXTT4=
EXTT5=
EXTT6=
EXTT7=
EXTT8=
EXTT9=
EXTT10=
EXTT11=
PLAYORDER=
